<?xml version="1.0" encoding="utf-8"?>
<!-- Generator: Adobe Illustrator 22.0.1, SVG Export Plug-In . SVG Version: 6.00 Build 0)  -->
<svg version="1.1" id="Layer_1" xmlns="http://www.w3.org/2000/svg" xmlns:xlink="http://www.w3.org/1999/xlink" x="0px" y="0px"
	 viewBox="0 0 25 25" style="enable-background:new 0 0 25 25;" xml:space="preserve">
<g>
	<path d="M-4333.4-90.1c-43.2,0-78.4,35.2-78.4,78.4c0,43.3,35.2,78.4,78.4,78.4s78.4-35.2,78.4-78.4S-4290.2-90.1-4333.4-90.1z
		 M-4333.7-56.9c13.7,0,24.8,11.1,24.8,24.8s-11.1,24.8-24.8,24.8c-13.7,0-24.8-11.1-24.8-24.8S-4347.4-56.9-4333.7-56.9z
		 M-4289.5,43.4c-12,9.6-27.3,15.4-43.9,15.4s-31.8-5.8-43.8-15.4c1.1-19.9,14.2-39.9,30.2-39.9h27.3c16,0,29.1,19.3,30.2,39.2l0,0
		C-4289.5,42.7-4289.5,43.1-4289.5,43.4z"/>
</g>
<g>
	<g id="XMLID_1_">
		<g>
			<path d="M18.7,22c0,0,0,0,0,0.1c-1.8,1.2-3.8,1.8-6,1.8c-2.5-0.1-4.7-0.7-6.5-2c0.1-3.2,1.9-5.7,4.1-5.7h4.3
				C16.8,16.2,18.7,18.8,18.7,22z"/>
			<path d="M15.8,9.2c-0.1,1.9-1.6,3.4-3.4,3.4c-1.9,0-3.4-1.5-3.4-3.4s1.5-3.4,3.4-3.4S15.8,7.4,15.8,9.2z"/>
			<path d="M12.4,4.7c2.5,0,4.5,2,4.6,4.6c0,2.5-2.1,4.6-4.6,4.6s-4.6-2.1-4.6-4.6S9.9,4.7,12.4,4.7z M15.8,9.2
				c0-1.9-1.5-3.4-3.4-3.4S9,7.4,9,9.2s1.5,3.4,3.4,3.4C14.2,12.6,15.7,11.1,15.8,9.2z"/>
			<path d="M0,12.5C0,5.6,5.7,0,12.5,0C19.4,0,25.1,5.6,25,12.5C25,19.3,19.3,25,12.5,25S0,19.4,0,12.5z M4.9,20.8
				c0.3-3.4,2.6-6,5.3-6h4.3c2.7,0,5,2.8,5.4,6.3c2.4-2.1,4-5.1,3.9-8.6c0-6.2-5-11.2-11.2-11.2S1.3,6.3,1.3,12.5
				C1.3,15.8,2.6,18.7,4.9,20.8z M6.2,21.8c1.8,1.3,4,1.9,6.5,2c2.2,0,4.2-0.6,6-1.8c0-0.1,0-0.1,0-0.1c0-3.2-1.9-5.8-4.1-5.8h-4.3
				C8.1,16.2,6.3,18.7,6.2,21.8z"/>
		</g>
	</g>
</g>
<polygon points="5.8,20.9 6.3,18.5 7.6,16.7 10.1,15.7 13.8,15.5 16.1,15.5 17.6,16.8 18.9,19.3 19.4,22 17,23.5 9.7,23.4 7.6,23.1 
	5.5,22 "/>
<polygon points="11.6,5.4 14,5.4 16.1,7.8 16.2,9.7 14.6,12.1 9.8,10.3 10.7,6.9 "/>
</svg>
