<?xml version="1.0" encoding="utf-8"?>
<!-- Generator: Adobe Illustrator 22.0.1, SVG Export Plug-In . SVG Version: 6.00 Build 0)  -->
<svg version="1.1" id="Layer_1" xmlns="http://www.w3.org/2000/svg" xmlns:xlink="http://www.w3.org/1999/xlink" x="0px" y="0px"
	 viewBox="0 0 25 25" style="enable-background:new 0 0 25 25;" xml:space="preserve">
<g>
	<path d="M-4333.4-90.1c-43.2,0-78.4,35.2-78.4,78.4c0,43.3,35.2,78.4,78.4,78.4s78.4-35.2,78.4-78.4
		C-4255-54.9-4290.2-90.1-4333.4-90.1z M-4333.7-56.9c13.7,0,24.8,11.1,24.8,24.8c0,13.7-11.1,24.8-24.8,24.8
		c-13.7,0-24.8-11.1-24.8-24.8C-4358.5-45.8-4347.4-56.9-4333.7-56.9z M-4289.5,43.4c-12,9.6-27.3,15.4-43.9,15.4
		c-16.6,0-31.8-5.8-43.8-15.4c1.1-19.9,14.2-39.9,30.2-39.9h27.3c16,0,29.1,19.3,30.2,39.2c0,0,0,0,0,0
		C-4289.5,42.7-4289.5,43.1-4289.5,43.4z"/>
</g>
<g>
	<path d="M12.3,4.7c-2.5,0-4.6,2.1-4.6,4.6c0,2.5,2.1,4.6,4.6,4.6c2.5,0,4.6-2.1,4.6-4.6C16.9,6.8,14.8,4.7,12.3,4.7z M12.3,12.6
		c-1.8,0-3.3-1.5-3.3-3.3c0-1.8,1.5-3.3,3.3-3.3s3.3,1.5,3.3,3.3C15.7,11.1,14.2,12.6,12.3,12.6z"/>
	<path d="M12.5,0C5.6,0,0,5.6,0,12.5C0,19.4,5.6,25,12.5,25S25,19.4,25,12.5C25,5.6,19.4,0,12.5,0z M6.1,21.8
		c0.1-3.1,1.9-5.6,4.1-5.6h4.2c2.2,0,4.1,2.6,4.1,5.8c0,0,0,0,0,0.1c-1.7,1.1-3.8,1.7-6,1.7C10.1,23.8,8,23,6.1,21.8z M19.8,21.1
		c-0.3-3.5-2.6-6.2-5.3-6.2h-4.2c-2.7,0-4.9,2.6-5.3,5.9c-2.3-2.1-3.7-5-3.7-8.3c0-6.2,5-11.3,11.3-11.3s11.3,5,11.3,11.3
		C23.8,15.9,22.2,19,19.8,21.1z"/>
</g>
</svg>
