<?xml version="1.0" encoding="utf-8"?>
<!-- Generator: Adobe Illustrator 22.0.1, SVG Export Plug-In . SVG Version: 6.00 Build 0)  -->
<svg version="1.1" id="Layer_1" xmlns="http://www.w3.org/2000/svg" xmlns:xlink="http://www.w3.org/1999/xlink" x="0px" y="0px"
	 viewBox="0 0 25 25" style="enable-background:new 0 0 25 25;" xml:space="preserve">
<style type="text/css">
	.st0{display:none;enable-background:new    ;}
	.st1{display:inline;}
	.st2{enable-background:new    ;}
	.st3{fill:none;stroke:#000000;stroke-width:1.0941;stroke-miterlimit:10;}
</style>
<g class="st0">
	<g class="st1">
		<g>
			<polygon points="35.5,-6 18.5,-6 18.5,-23 6.5,-23 6.5,-6 -10.5,-6 -10.5,6 6.5,6 6.5,23 18.5,23 18.5,6 35.5,6 			"/>
		</g>
	</g>
</g>
<g class="st0">
	<g class="st1">
		<g>
			<path d="M29.5-6h-11v-11c0-3.3-2.7-6-6-6s-6,2.7-6,6v11h-11c-3.3,0-6,2.7-6,6s2.7,6,6,6h11v11c0,3.3,2.7,6,6,6s6-2.7,6-6V6h11
				c3.3,0,6-2.7,6-6S32.8-6,29.5-6z"/>
		</g>
	</g>
</g>
<g class="st0">
	<g class="st1">
		<g>
			<path d="M33.5-2h-19v-19c0-1.1-0.9-2-2-2s-2,0.9-2,2v19h-19c-1.1,0-2,0.9-2,2s0.9,2,2,2h19v19c0,1.1,0.9,2,2,2s2-0.9,2-2V2h19
				c1.1,0,2-0.9,2-2S34.6-2,33.5-2z"/>
		</g>
	</g>
</g>
<g>
	<g class="st2">
		<g>
			<g>
				<polygon points="18.8,12 13,12 13,6.2 12,6.2 12,12 6.2,12 6.2,13 12,13 12,18.8 13,18.8 13,13 18.8,13 				"/>
			</g>
		</g>
	</g>
	<g class="st2">
		<g>
			<g>
				<circle class="st3" cx="12.5" cy="12.5" r="11.8"/>
			</g>
		</g>
	</g>
</g>
</svg>
