<?xml version="1.0" encoding="utf-8"?>
<!-- Generator: Adobe Illustrator 22.0.1, SVG Export Plug-In . SVG Version: 6.00 Build 0)  -->
<svg version="1.1"
	 id="Layer_1" xmlns:cc="http://creativecommons.org/ns#" xmlns:dc="http://purl.org/dc/elements/1.1/" xmlns:inkscape="http://www.inkscape.org/namespaces/inkscape" xmlns:rdf="http://www.w3.org/1999/02/22-rdf-syntax-ns#" xmlns:sodipodi="http://sodipodi.sourceforge.net/DTD/sodipodi-0.dtd" xmlns:svg="http://www.w3.org/2000/svg"
	 xmlns="http://www.w3.org/2000/svg" xmlns:xlink="http://www.w3.org/1999/xlink" x="0px" y="0px" viewBox="0 0 25 25"
	 style="enable-background:new 0 0 25 25;" xml:space="preserve">
<path d="M23.5,9h-0.7V6.8h-1.5V9h-4.1V4.1V3.4h-0.7h-0.7V1.4V0.7h-0.7h-2.7h-0.8v0.7v2.1H8.3H7.7v0.7v7.6H4.9V9.6H3.5v2.1H1.5H0.7
	v0.7v11.1v0.7h0.7h6.2h0.7h0.7h6.9h0.7h0.7h6.2h0.9v-0.7V9.6V9H23.5z M5.6,21.6H4.2v-1.4h1.4V21.6z M5.6,18.7H4.2v-1.4h1.4V18.7z
	 M5.6,16H4.2v-1.4h1.4V16z M13.9,21.6h-2.8v-1.4h2.8V21.6z M13.9,18.7h-2.8v-1.4h2.8V18.7z M13.9,16h-2.8v-1.4h2.8V16z M13.9,13.2
	h-2.8v-1.4h2.8V13.2z M13.9,10.5h-2.8V9.1h2.8V10.5z M13.9,7.7h-2.8V6.3h2.8V7.7z M14.5,3.5h-1.4V2.1h1.4V3.5z M20.7,21.6h-1.4v-1.4
	h1.4V21.6z M20.7,18.7h-1.4v-1.4h1.4V18.7z M20.7,16h-1.4v-1.4h1.4V16z M20.7,13.2h-1.4v-1.4h1.4V13.2z"/>
</svg>
