<?xml version="1.0" encoding="utf-8"?>
<!-- Generator: Adobe Illustrator 22.0.1, SVG Export Plug-In . SVG Version: 6.00 Build 0)  -->
<svg version="1.1"
	 id="Layer_1" xmlns:cc="http://creativecommons.org/ns#" xmlns:dc="http://purl.org/dc/elements/1.1/" xmlns:inkscape="http://www.inkscape.org/namespaces/inkscape" xmlns:rdf="http://www.w3.org/1999/02/22-rdf-syntax-ns#" xmlns:sodipodi="http://sodipodi.sourceforge.net/DTD/sodipodi-0.dtd" xmlns:svg="http://www.w3.org/2000/svg"
	 xmlns="http://www.w3.org/2000/svg" xmlns:xlink="http://www.w3.org/1999/xlink" x="0px" y="0px" viewBox="0 0 25 25"
	 style="enable-background:new 0 0 25 25;" xml:space="preserve">
<g transform="translate(0,-1036.3622)">
	<g transform="matrix(0.93960084,0,0,0.93960084,-18.37881,-79.349854)">
		<g transform="matrix(1.0010413,0,0,1.0010413,0.04532893,-26.938065)">
			<g transform="matrix(0.99802578,0,0,0.99802578,-25.643888,-105.12555)">
				<path d="M57.8,1321.6v0.7v2.2h-3.7h-0.7v0.7v8.1h-2.9v-2.2h-1.5v2.2h-2.2H46v0.7v11.8v0.7h0.7h6.6h0.7h0.7h7.3h0.7h0.7h6.6H71
					v-0.7v-14.7v-0.7h-0.7h-0.7v-2.3H68v2.3h-4.4v-5.2v-0.7h-0.7h-0.7v-2.2v-0.7h-0.7h-2.9H57.8z M59.2,1323.1h1.5v1.5h-1.5V1323.1z
					 M54.8,1326h2.9h4.4v4.5v0.7v14h-7.3v-11.1v-0.7V1326z M57,1327.5v1.5H60v-1.5H57z M57,1330.5v1.5H60v-1.5H57z M63.6,1332h5.9
					v13.3h-5.9V1332z M57,1333.4v1.5H60v-1.5H57z M65.8,1333.4v1.5h1.5v-1.5H65.8z M47.5,1334.9h5.9v10.3h-5.9V1334.9z M49.7,1336.4
					v1.5h1.5v-1.5H49.7z M57,1336.4v1.5H60v-1.5H57z M65.8,1336.4v1.5h1.5v-1.5H65.8z M49.7,1339.3v1.5h1.5v-1.5H49.7z M57,1339.3
					v1.5H60v-1.5H57z M65.8,1339.3v1.5h1.5v-1.5H65.8z M49.7,1342.3v1.5h1.5v-1.5H49.7z M57,1342.3v1.5H60v-1.5H57z M65.8,1342.3
					v1.5h1.5v-1.5H65.8z"/>
			</g>
		</g>
	</g>
</g>
</svg>
