<?xml version="1.0" encoding="utf-8"?>
<!-- Generator: Adobe Illustrator 22.0.1, SVG Export Plug-In . SVG Version: 6.00 Build 0)  -->
<svg version="1.1" id="Layer_1" xmlns="http://www.w3.org/2000/svg" xmlns:xlink="http://www.w3.org/1999/xlink" x="0px" y="0px"
	 viewBox="0 0 25 25" style="enable-background:new 0 0 25 25;" xml:space="preserve">
<g>
	<path d="M23,25H2c-1.1,0-2-0.9-2-2V3.5c0-1.1,0.9-2,2-2H23c1.1,0,2,0.9,2,2V23C25,24.1,24.1,25,23,25z M2,3.1
		c-0.2,0-0.4,0.2-0.4,0.4V23c0,0.2,0.2,0.4,0.4,0.4H23c0.2,0,0.4-0.2,0.4-0.4V3.5c0-0.2-0.2-0.4-0.4-0.4C23,3.1,2,3.1,2,3.1z
		 M24.2,7.8H0.8C0.4,7.8,0,7.5,0,7s0.4-0.8,0.8-0.8h23.4C24.7,6.2,25,6.6,25,7S24.7,7.8,24.2,7.8z M4.7,4.7c-0.4,0-0.8-0.3-0.8-0.8
		V0.8C3.9,0.3,4.3,0,4.7,0s0.8,0.3,0.8,0.8v3.1C5.5,4.3,5.1,4.7,4.7,4.7z M20.3,4.7c-0.4,0-0.8-0.3-0.8-0.8V0.8
		c0-0.4,0.3-0.8,0.8-0.8s0.8,0.3,0.8,0.8v3.1C21.1,4.3,20.7,4.7,20.3,4.7z"/>
	<circle cx="4.7" cy="14.1" r="0.8"/>
	<circle cx="4.7" cy="17.2" r="0.8"/>
	<circle cx="4.7" cy="20.3" r="0.8"/>
	<circle cx="17.2" cy="10.9" r="0.8"/>
	<circle cx="17.2" cy="14.1" r="0.8"/>
	<circle cx="17.2" cy="17.2" r="0.8"/>
	<circle cx="17.2" cy="20.3" r="0.8"/>
	<circle cx="20.3" cy="10.9" r="0.8"/>
	<circle cx="20.3" cy="14.1" r="0.8"/>
	<circle cx="20.3" cy="17.2" r="0.8"/>
	<circle cx="10.9" cy="10.9" r="0.8"/>
	<circle cx="10.9" cy="14.1" r="0.8"/>
	<circle cx="10.9" cy="17.2" r="0.8"/>
	<circle cx="10.9" cy="20.3" r="0.8"/>
	<circle cx="7.8" cy="10.9" r="0.8"/>
	<circle cx="7.8" cy="14.1" r="0.8"/>
	<circle cx="7.8" cy="17.2" r="0.8"/>
	<circle cx="7.8" cy="20.3" r="0.8"/>
	<circle cx="14.1" cy="10.9" r="0.8"/>
	<circle cx="14.1" cy="14.1" r="0.8"/>
	<circle cx="14.1" cy="17.2" r="0.8"/>
	<circle cx="14.1" cy="20.3" r="0.8"/>
</g>
</svg>
