<?xml version="1.0" encoding="utf-8"?>
<!-- Generator: Adobe Illustrator 22.0.1, SVG Export Plug-In . SVG Version: 6.00 Build 0)  -->
<svg version="1.1" id="Layer_1" xmlns="http://www.w3.org/2000/svg" xmlns:xlink="http://www.w3.org/1999/xlink" x="0px" y="0px"
	 viewBox="0 0 25 25" style="enable-background:new 0 0 25 25;" xml:space="preserve">
<path d="M23,25H2c-1.1,0-2-0.9-2-2V3.5c0-1.1,0.9-2,2-2h21c1.1,0,2,0.9,2,2V23C25,24.1,24.1,25,23,25z M2,3.1
	c-0.2,0-0.4,0.2-0.4,0.4V23c0,0.2,0.2,0.4,0.4,0.4h21c0.2,0,0.4-0.2,0.4-0.4V3.5c0-0.2-0.2-0.4-0.4-0.4H2z M24.2,7.8H0.8
	C0.4,7.8,0,7.5,0,7s0.4-0.8,0.8-0.8h23.4C24.7,6.2,25,6.6,25,7S24.7,7.8,24.2,7.8z M4.7,4.7c-0.4,0-0.8-0.3-0.8-0.8V0.8
	C3.9,0.3,4.3,0,4.7,0s0.8,0.3,0.8,0.8v3.1C5.5,4.3,5.1,4.7,4.7,4.7z M20.3,4.7c-0.4,0-0.8-0.3-0.8-0.8V0.8c0-0.4,0.3-0.8,0.8-0.8
	s0.8,0.3,0.8,0.8v3.1C21.1,4.3,20.7,4.7,20.3,4.7z"/>
<path d="M1.1,7v17h22.8V7H1.1z M4.7,21.1c-0.4,0-0.8-0.4-0.8-0.8s0.4-0.8,0.8-0.8s0.8,0.4,0.8,0.8S5.1,21.1,4.7,21.1z M4.7,18
	c-0.4,0-0.8-0.4-0.8-0.8s0.4-0.8,0.8-0.8s0.8,0.4,0.8,0.8S5.1,18,4.7,18z M4.7,14.9c-0.4,0-0.8-0.4-0.8-0.8s0.4-0.8,0.8-0.8
	s0.8,0.4,0.8,0.8S5.1,14.9,4.7,14.9z M7.8,21.1c-0.4,0-0.8-0.4-0.8-0.8s0.4-0.8,0.8-0.8s0.8,0.4,0.8,0.8S8.2,21.1,7.8,21.1z M7.8,18
	C7.4,18,7,17.6,7,17.2s0.4-0.8,0.8-0.8s0.8,0.4,0.8,0.8S8.2,18,7.8,18z M7.8,14.9c-0.4,0-0.8-0.4-0.8-0.8s0.4-0.8,0.8-0.8
	s0.8,0.4,0.8,0.8S8.2,14.9,7.8,14.9z M7.8,11.7c-0.4,0-0.8-0.4-0.8-0.8c0-0.4,0.4-0.8,0.8-0.8s0.8,0.4,0.8,0.8
	C8.6,11.3,8.2,11.7,7.8,11.7z M10.9,21.1c-0.4,0-0.8-0.4-0.8-0.8s0.4-0.8,0.8-0.8s0.8,0.4,0.8,0.8S11.3,21.1,10.9,21.1z M10.9,18
	c-0.4,0-0.8-0.4-0.8-0.8s0.4-0.8,0.8-0.8s0.8,0.4,0.8,0.8S11.3,18,10.9,18z M10.9,14.9c-0.4,0-0.8-0.4-0.8-0.8s0.4-0.8,0.8-0.8
	s0.8,0.4,0.8,0.8S11.3,14.9,10.9,14.9z M10.9,11.7c-0.4,0-0.8-0.4-0.8-0.8c0-0.4,0.4-0.8,0.8-0.8s0.8,0.4,0.8,0.8
	C11.7,11.3,11.3,11.7,10.9,11.7z M14.1,21.1c-0.4,0-0.8-0.4-0.8-0.8s0.4-0.8,0.8-0.8c0.4,0,0.8,0.4,0.8,0.8S14.5,21.1,14.1,21.1z
	 M14.1,18c-0.4,0-0.8-0.4-0.8-0.8s0.4-0.8,0.8-0.8c0.4,0,0.8,0.4,0.8,0.8S14.5,18,14.1,18z M14.1,14.9c-0.4,0-0.8-0.4-0.8-0.8
	s0.4-0.8,0.8-0.8c0.4,0,0.8,0.4,0.8,0.8S14.5,14.9,14.1,14.9z M14.1,11.7c-0.4,0-0.8-0.4-0.8-0.8c0-0.4,0.4-0.8,0.8-0.8
	c0.4,0,0.8,0.4,0.8,0.8C14.9,11.3,14.5,11.7,14.1,11.7z M17.2,21.1c-0.4,0-0.8-0.4-0.8-0.8s0.4-0.8,0.8-0.8s0.8,0.4,0.8,0.8
	S17.6,21.1,17.2,21.1z M17.2,18c-0.4,0-0.8-0.4-0.8-0.8s0.4-0.8,0.8-0.8s0.8,0.4,0.8,0.8S17.6,18,17.2,18z M17.2,14.9
	c-0.4,0-0.8-0.4-0.8-0.8s0.4-0.8,0.8-0.8s0.8,0.4,0.8,0.8S17.6,14.9,17.2,14.9z M17.2,11.7c-0.4,0-0.8-0.4-0.8-0.8
	c0-0.4,0.4-0.8,0.8-0.8s0.8,0.4,0.8,0.8C18,11.3,17.6,11.7,17.2,11.7z M20.3,18c-0.4,0-0.8-0.4-0.8-0.8s0.4-0.8,0.8-0.8
	s0.8,0.4,0.8,0.8S20.7,18,20.3,18z M20.3,14.9c-0.4,0-0.8-0.4-0.8-0.8s0.4-0.8,0.8-0.8s0.8,0.4,0.8,0.8S20.7,14.9,20.3,14.9z
	 M20.3,11.7c-0.4,0-0.8-0.4-0.8-0.8c0-0.4,0.4-0.8,0.8-0.8s0.8,0.4,0.8,0.8C21.1,11.3,20.7,11.7,20.3,11.7z"/>
</svg>
