<?xml version="1.0" encoding="utf-8"?>
<!-- Generator: Adobe Illustrator 22.0.1, SVG Export Plug-In . SVG Version: 6.00 Build 0)  -->
<svg version="1.1" id="Layer_1" xmlns="http://www.w3.org/2000/svg" xmlns:xlink="http://www.w3.org/1999/xlink" x="0px" y="0px"
	 viewBox="0 0 25 25" style="enable-background:new 0 0 25 25;" xml:space="preserve">
<path d="M12.5,0C5.6,0,0,5.6,0,12.5S5.6,25,12.5,25S25,19.4,25,12.5S19.5,0,12.5,0z M19,8.8l-8,8c-0.1,0.1-0.2,0.1-0.4,0.1
	s-0.3,0-0.4-0.1l-4-4c-0.2-0.2-0.2-0.5,0-0.7s0.5-0.2,0.7,0l3.6,3.6L18,8.1c0.2-0.1,0.7-0.2,0.9,0C19.2,8.3,19.2,8.6,19,8.8z"/>
</svg>
