<?xml version="1.0" encoding="utf-8"?>
<!-- Generator: Adobe Illustrator 22.0.1, SVG Export Plug-In . SVG Version: 6.00 Build 0)  -->
<svg version="1.1" id="Layer_1" xmlns="http://www.w3.org/2000/svg" xmlns:xlink="http://www.w3.org/1999/xlink" x="0px" y="0px"
	 viewBox="0 0 25 25" style="enable-background:new 0 0 25 25;" xml:space="preserve">
<g>
	<g>
		<path d="M12.5,0C5.6,0,0,5.6,0,12.5S5.6,25,12.5,25S25,19.4,25,12.5S19.4,0,12.5,0z M12.5,24C6.2,24,1,18.8,1,12.5
			C1,6.2,6.2,1,12.5,1C18.8,1,24,6.2,24,12.5C24,18.8,18.8,24,12.5,24z"/>
		<path d="M18.1,8.1l-7.6,7.6l-3.6-3.6c-0.2-0.2-0.5-0.2-0.7,0s-0.2,0.5,0,0.7l4,4c0.1,0.1,0.2,0.1,0.4,0.1s0.3,0,0.4-0.1l8-8
			c0.2-0.2,0.2-0.5,0-0.7S18.3,8,18.1,8.1z"/>
	</g>
</g>
</svg>
