<?xml version="1.0" encoding="utf-8"?>
<!-- Generator: Adobe Illustrator 22.0.1, SVG Export Plug-In . SVG Version: 6.00 Build 0)  -->
<svg version="1.1" id="Layer_1" xmlns="http://www.w3.org/2000/svg" xmlns:xlink="http://www.w3.org/1999/xlink" x="0px" y="0px"
	 viewBox="0 0 25 25" style="enable-background:new 0 0 25 25;" xml:space="preserve">
<title>85all</title>
<path d="M22.4,4.9c0-1.7-1.4-3.1-3.1-3.1h-2.2c-0.6-0.9-1.5-1.4-2.6-1.4h-3.9c-1,0-2,0.5-2.6,1.4H5.7C4,1.8,2.6,3.2,2.6,4.9v16.6
	c0,1.7,1.4,3.1,3.1,3.1h13.5c1.7,0,3.1-1.4,3.1-3.1 M10.5,2.1h3.9c0.7,0,1.2,0.5,1.4,1.1H9.1C9.3,2.5,9.9,2.1,10.5,2.1z M20.7,21.5
	c0,0.8-0.6,1.4-1.4,1.4H5.7c-0.8,0-1.4-0.6-1.4-1.4V4.9c0-0.8,0.6-1.4,1.4-1.4h1.7V4c0,0.5,0.4,0.8,0.8,0.8h8.5
	c0.5,0,0.8-0.4,0.8-0.8V3.5h1.7c0.8,0,1.4,0.6,1.4,1.4"/>
<path d="M19.2,3l-1.9-0.1L17,4.1l-4.9,0.2l-4-1.1L6.3,2.7L3.9,3.2L2.9,8.5l0.3,11l0.2,3.1l1.5,1.1L18.9,24l2.4-1.7V3.5L19.2,3z
	 M18,9.9l-6.7,6.6c-0.3,0.3-0.9,0.3-1.2,0l-3.2-3.2c-0.3-0.4-0.3-0.9,0-1.2c0.3-0.3,0.9-0.3,1.2,0l2.6,2.6l6.1-6
	c0.4-0.3,0.9-0.3,1.2,0S18.3,9.6,18,9.9z"/>
</svg>
