<?xml version="1.0" encoding="utf-8"?>
<!-- Generator: Adobe Illustrator 22.0.1, SVG Export Plug-In . SVG Version: 6.00 Build 0)  -->
<svg version="1.1" id="Layer_1" xmlns="http://www.w3.org/2000/svg" xmlns:xlink="http://www.w3.org/1999/xlink" x="0px" y="0px"
	 viewBox="0 0 120 120" style="enable-background:new 0 0 120 120;" xml:space="preserve">
<g>
	<polygon points="88.1,97.9 82.6,92.5 80.4,94.7 88.1,102.3 99.7,90.7 97.5,88.5 	"/>
	<path d="M32.4,55h-2.3c-1.3,0-2.4,1.1-2.4,2.4c0,1.3,1.1,2.4,2.4,2.4h2.3c1.3,0,2.4-1.1,2.4-2.4C34.8,56.1,33.8,55,32.4,55z"/>
	<path d="M32.4,75.2h-2.3c-1.3,0-2.4,1.1-2.4,2.4s1.1,2.4,2.4,2.4h2.3c1.3,0,2.4-1.1,2.4-2.4S33.8,75.2,32.4,75.2z"/>
	<path d="M32.4,95.3h-2.3c-1.3,0-2.4,1.1-2.4,2.4s1.1,2.4,2.4,2.4h2.3c1.3,0,2.4-1.1,2.4-2.4C34.8,96.4,33.8,95.3,32.4,95.3z"/>
	<path d="M60.9,55h-2.3c-1.3,0-2.4,1.1-2.4,2.4c0,1.3,1.1,2.4,2.4,2.4h2.3c1.3,0,2.4-1.1,2.4-2.4C63.3,56.1,62.2,55,60.9,55z"/>
	<path d="M60.9,75.2h-2.3c-1.3,0-2.4,1.1-2.4,2.4s1.1,2.4,2.4,2.4h2.3c1.3,0,2.4-1.1,2.4-2.4S62.2,75.2,60.9,75.2z"/>
	<path d="M60.9,95.3h-2.3c-1.3,0-2.4,1.1-2.4,2.4s1.1,2.4,2.4,2.4h2.3c1.3,0,2.4-1.1,2.4-2.4C63.3,96.4,62.2,95.3,60.9,95.3z"/>
	<path d="M87,59.8h2.3c1.3,0,2.4-1.1,2.4-2.4c0-1.3-1.1-2.4-2.4-2.4H87c-1.3,0-2.4,1.1-2.4,2.4C84.6,58.7,85.7,59.8,87,59.8z"/>
	<path d="M87,80h2.3c1.3,0,2.4-1.1,2.4-2.4s-1.1-2.4-2.4-2.4H87c-1.3,0-2.4,1.1-2.4,2.4C84.6,78.9,85.7,80,87,80z"/>
	<path d="M103.8,9.9V5.4c0-2.3-1.9-4.1-4.1-4.1h-3.4c-2.3,0-4.1,1.9-4.1,4.1v4.4H65.6V5.4c0-2.3-1.9-4.1-4.1-4.1H58
		c-2.3,0-4.1,1.9-4.1,4.1v4.4H27.3V5.4c0-2.3-1.9-4.1-4.1-4.1h-3.4c-2.3,0-4.1,1.9-4.1,4.1V10c-5.7,0.9-10,5.9-10,11.8v84.8
		c0,6.6,5.4,12,12,12h84.8c6.6,0,12-5.4,12-12V21.9C114.4,15.7,109.8,10.6,103.8,9.9z M95.3,5.4c0-0.5,0.4-1,1-1h3.4
		c0.5,0,1,0.4,1,1v11.9c0,0.5-0.4,1-1,1h-3.4c-0.5,0-1-0.4-1-1V5.4z M57,5.4c0-0.5,0.4-1,1-1h3.4c0.5,0,1,0.4,1,1v11.9
		c0,0.5-0.4,1-1,1H58c-0.5,0-1-0.4-1-1V5.4z M18.8,5.4c0-0.5,0.4-1,1-1h3.4c0.5,0,1,0.4,1,1v11.9c0,0.5-0.4,1-1,1h-3.4
		c-0.5,0-1-0.4-1-1V5.4z M15.6,13.2v4.2c0,2.3,1.9,4.1,4.1,4.1h3.4c2.3,0,4.1-1.9,4.1-4.1V13h26.6v4.4c0,2.3,1.9,4.1,4.1,4.1h3.4
		c2.3,0,4.1-1.9,4.1-4.1V13h26.6v4.4c0,2.3,1.9,4.1,4.1,4.1h3.4c2.3,0,4.1-1.9,4.1-4.1v-4.3c4.2,0.7,7.5,4.3,7.5,8.7v15.3H8.7V21.9
		C8.7,17.6,11.6,14.1,15.6,13.2z M102.4,115.5H17.6c-4.9,0-8.9-4-8.9-8.9V40.2h102.6v66.4C111.3,111.6,107.3,115.5,102.4,115.5z"/>
</g>
</svg>
