<?xml version="1.0" encoding="utf-8"?>
<!-- Generator: Adobe Illustrator 22.0.1, SVG Export Plug-In . SVG Version: 6.00 Build 0)  -->
<svg version="1.1" id="Layer_1" xmlns="http://www.w3.org/2000/svg" xmlns:xlink="http://www.w3.org/1999/xlink" x="0px" y="0px"
	 viewBox="0 0 28 28" style="enable-background:new 0 0 28 28;" xml:space="preserve">
<g>
	<path d="M6.3,10.7V1c0-0.6-0.5-1-1.1-1S4.2,0.5,4.2,1v9.6c-1.4,0.5-2.4,1.8-2.4,3.3s1,2.9,2.4,3.3V27c0,0.6,0.5,1,1.1,1
		s1.1-0.5,1.1-1v-9.6c1.4-0.5,2.4-1.8,2.4-3.3S7.7,11.1,6.3,10.7z M5.2,16.1c-1.2,0-2.1-0.9-2.1-2.1s0.9-2.1,2.1-2.1
		s2.1,0.9,2.1,2.1S6.4,16.1,5.2,16.1z M15.1,21.2V1c0-0.6-0.5-1-1.1-1s-1.1,0.5-1.1,1v20.1c-1.4,0.5-2.4,1.8-2.4,3.3
		c0,1.9,1.6,3.5,3.5,3.5s3.5-1.6,3.5-3.5C17.5,22.9,16.5,21.6,15.1,21.2z M14,26.6c-1.2,0-2.1-0.9-2.1-2.1s0.9-2.1,2.1-2.1
		s2.1,0.9,2.1,2.1S15.2,26.6,14,26.6z M26.2,3.5c0-1.9-1.6-3.5-3.5-3.5s-3.5,1.6-3.5,3.5c0,1.6,1,2.9,2.5,3.3V27c0,0.6,0.5,1,1,1
		s1-0.5,1-1V6.8C25.2,6.4,26.2,5.1,26.2,3.5z M22.8,5.6c-1.2,0-2.1-0.9-2.1-2.1s0.9-2.1,2.1-2.1s2.1,0.9,2.1,2.1S23.9,5.6,22.8,5.6z
		"/>
</g>
</svg>
