<?xml version="1.0" encoding="utf-8"?>
<!-- Generator: Adobe Illustrator 22.0.1, SVG Export Plug-In . SVG Version: 6.00 Build 0)  -->
<svg version="1.1" id="Layer_1" xmlns="http://www.w3.org/2000/svg" xmlns:xlink="http://www.w3.org/1999/xlink" x="0px" y="0px"
	 viewBox="0 0 28 28" style="enable-background:new 0 0 28 28;" xml:space="preserve">
<g>
	<g id="XMLID_1_">
		<g>
			<circle cx="22.8" cy="3.5" r="2.1"/>
			<circle cx="14" cy="24.5" r="2.1"/>
			<circle cx="5.2" cy="14" r="2.1"/>
			<path d="M24.9,3.5c0-1.2-0.9-2.1-2.1-2.1c-1.2,0-2.1,0.9-2.1,2.1s0.9,2.1,2.1,2.1C23.9,5.6,24.9,4.7,24.9,3.5z M22.7,0
				c1.9,0,3.5,1.6,3.5,3.5c0,1.6-1,2.9-2.5,3.3V27c0,0.5-0.5,1-1,1s-1-0.4-1-1V6.8c-1.5-0.4-2.5-1.7-2.5-3.3C19.2,1.6,20.8,0,22.7,0
				z"/>
			<path d="M15.1,21.2c1.4,0.4,2.4,1.7,2.4,3.2c0,1.9-1.6,3.5-3.5,3.5s-3.5-1.6-3.5-3.5c0-1.5,1-2.8,2.4-3.3V1c0-0.5,0.5-1,1.1-1
				s1.1,0.4,1.1,1V21.2z M16.1,24.5c0-1.2-0.9-2.1-2.1-2.1s-2.1,0.9-2.1,2.1s0.9,2.1,2.1,2.1S16.1,25.7,16.1,24.5z"/>
			<path d="M7.3,14c0-1.2-0.9-2.1-2.1-2.1S3.1,12.8,3.1,14s0.9,2.1,2.1,2.1S7.3,15.2,7.3,14z M1.8,13.9c0-1.5,1-2.8,2.4-3.3V1
				c0-0.5,0.4-1,1-1s1.1,0.4,1.1,1v9.7c1.4,0.4,2.5,1.9,2.5,3.4s-1,2.8-2.4,3.3V27c0,0.5-0.5,1-1.1,1s-1.1-0.4-1.1-1v-9.8
				C2.8,16.8,1.8,15.4,1.8,13.9z"/>
		</g>
		<g>
		</g>
	</g>
</g>
</svg>
