<?xml version="1.0" encoding="utf-8"?>
<!-- Generator: Adobe Illustrator 22.0.1, SVG Export Plug-In . SVG Version: 6.00 Build 0)  -->
<svg version="1.1" id="Layer_1" xmlns="http://www.w3.org/2000/svg" xmlns:xlink="http://www.w3.org/1999/xlink" x="0px" y="0px"
	 viewBox="0 0 28 28" style="enable-background:new 0 0 28 28;" xml:space="preserve">
<g>
	<path d="M3.5,0.8C1.6,0.8,0,2.4,0,4.3s1.6,3.5,3.5,3.5S7,6.2,7,4.3S5.5,0.8,3.5,0.8z M3.5,5.6C2.8,5.6,2.2,5,2.2,4.3S2.8,3,3.5,3
		s1.3,0.6,1.3,1.3S4.2,5.6,3.5,5.6z"/>
	<path d="M11,5.4h15.9C27.5,5.4,28,5,28,4.3s-0.5-1.1-1.1-1.1H11c-0.6,0-1.1,0.5-1.1,1.1S10.4,5.4,11,5.4z"/>
	<path d="M3.5,10.4C1.6,10.4,0,12,0,14s1.6,3.5,3.5,3.5S7,15.9,7,14S5.5,10.4,3.5,10.4z M3.5,15.3c-0.7,0-1.3-0.6-1.3-1.3
		s0.6-1.3,1.3-1.3s1.3,0.6,1.3,1.3S4.2,15.3,3.5,15.3z"/>
	<path d="M26.9,12.9H11c-0.6,0-1.1,0.5-1.1,1.1s0.5,1.1,1.1,1.1h15.9c0.6,0,1.1-0.5,1.1-1.1S27.5,12.9,26.9,12.9z"/>
	<path d="M3.5,20.1c-2,0-3.5,1.6-3.5,3.5s1.6,3.5,3.5,3.5S7,25.5,7,23.6S5.5,20.1,3.5,20.1z M3.5,25c-0.7,0-1.3-0.6-1.3-1.3
		c0-0.7,0.6-1.3,1.3-1.3s1.3,0.6,1.3,1.3S4.2,25,3.5,25z"/>
	<path d="M26.9,22.5H11c-0.6,0-1.1,0.5-1.1,1.1s0.5,1.1,1.1,1.1h15.9c0.6,0,1.1-0.5,1.1-1.1S27.5,22.5,26.9,22.5z"/>
</g>
<ellipse cx="3.4" cy="4.3" rx="2.1" ry="1.9"/>
<circle cx="3.7" cy="14" r="1.8"/>
<ellipse cx="3.4" cy="24.1" rx="2.1" ry="1.9"/>
</svg>
