<?xml version="1.0" encoding="utf-8"?>
<!-- Generator: Adobe Illustrator 22.0.1, SVG Export Plug-In . SVG Version: 6.00 Build 0)  -->
<svg version="1.1" id="Layer_1" xmlns="http://www.w3.org/2000/svg" xmlns:xlink="http://www.w3.org/1999/xlink" x="0px" y="0px"
	 viewBox="0 0 28 28" style="enable-background:new 0 0 28 28;" xml:space="preserve">
<g id="XMLID_1_">
	<g>
		<path d="M26.1,1.3c0.1,0,0.2,0,0.3,0.2c0.3,0.3,0.3,0.5-0.6,2.2c-0.3,0.5-0.5,1-0.9,1.7c-2.9,6.1-8.3,15.8-10.5,19.8L13,15.4
			c0-0.3-0.3-0.5-0.6-0.6l-9.8-1.4C6.7,11.3,16.4,5.9,22.5,3c0.7-0.3,1.2-0.6,1.7-0.9C25.1,1.6,25.7,1.3,26.1,1.3z"/>
		<path d="M25.8,3.7c0.9-1.7,0.9-1.9,0.6-2.2c-0.1-0.2-0.2-0.2-0.3-0.2c-0.4,0-1,0.3-1.9,0.8c-0.5,0.3-1,0.6-1.7,0.9
			C16.4,5.9,6.7,11.3,2.6,13.4l9.8,1.4c0.3,0.1,0.6,0.3,0.6,0.6l1.4,9.8c2.2-4,7.6-13.7,10.5-19.8C25.3,4.7,25.5,4.2,25.8,3.7z
			 M27.5,0.6c1,1.1,0.5,2.1-0.4,3.8c-0.3,0.5-0.6,1-0.9,1.7c-3.8,7.8-11.4,21.5-11.5,21.6c-0.1,0.2-0.4,0.3-0.6,0.3H14
			c-0.2-0.1-0.5-0.3-0.5-0.6l-1.6-11.3L0.6,14.5c-0.3,0-0.5-0.2-0.6-0.5c0-0.3,0.1-0.6,0.3-0.7c0.2-0.1,13.9-7.8,21.6-11.5
			c0.7-0.4,1.2-0.6,1.7-0.9C24.7,0.4,25.4,0,26.1,0C26.6,0,27,0.2,27.5,0.6z"/>
	</g>
	<g>
	</g>
</g>
</svg>
