<?xml version="1.0" encoding="utf-8"?>
<!-- Generator: Adobe Illustrator 22.0.1, SVG Export Plug-In . SVG Version: 6.00 Build 0)  -->
<svg version="1.1" id="Layer_1" xmlns="http://www.w3.org/2000/svg" xmlns:xlink="http://www.w3.org/1999/xlink" x="0px" y="0px"
	 viewBox="0 0 28 28" style="enable-background:new 0 0 28 28;" xml:space="preserve">
<path d="M0,14c0.1,0.3,0.3,0.5,0.6,0.5l11.3,1.6l1.6,11.3c0,0.3,0.3,0.5,0.5,0.6c0,0,0.1,0,0.1,0c0.2,0,0.5-0.1,0.6-0.3
	c0.1-0.1,7.7-13.8,11.5-21.6c0.3-0.7,0.6-1.2,0.9-1.7c0.9-1.7,1.4-2.7,0.4-3.8C27,0.2,26.6,0,26.1,0c-0.7,0-1.4,0.4-2.5,0.9
	c-0.5,0.3-1,0.5-1.7,0.9C14.2,5.5,0.5,13.2,0.3,13.3C0.1,13.4,0,13.7,0,14z M22.5,3c0.7-0.3,1.2-0.6,1.7-0.9
	c0.9-0.5,1.5-0.8,1.9-0.8c0.1,0,0.2,0,0.3,0.2c0.3,0.3,0.3,0.5-0.6,2.2c-0.3,0.5-0.5,1-0.9,1.7c-2.9,6.1-8.3,15.8-10.5,19.8
	l-1.4-9.8c0-0.3-0.3-0.5-0.6-0.6l-9.8-1.4C6.7,11.3,16.4,5.9,22.5,3z"/>
</svg>
