<?xml version="1.0" encoding="utf-8"?>
<!-- Generator: Adobe Illustrator 22.0.1, SVG Export Plug-In . SVG Version: 6.00 Build 0)  -->
<svg version="1.1" id="Layer_1" xmlns="http://www.w3.org/2000/svg" xmlns:xlink="http://www.w3.org/1999/xlink" x="0px" y="0px"
	 viewBox="0 0 120 120" style="enable-background:new 0 0 120 120;" xml:space="preserve">
<g>
	<g>
		<path d="M60,1.4c-24.6,0-44.6,20-44.6,44.6c0,23.9,41.1,70,42.8,71.9c0.4,0.5,1.1,0.8,1.7,0.8s1.3-0.3,1.7-0.8
			c1.7-1.9,42.8-48,42.8-71.9C104.6,21.4,84.6,1.4,60,1.4z M60,112.7c-7.9-9.1-39.9-47.3-39.9-66.8C20.1,23.9,38,6.1,60,6.1
			s39.9,17.9,39.9,39.9C99.9,65.4,67.9,103.6,60,112.7z"/>
		<path d="M60,24.8c-11.6,0-21.1,9.5-21.1,21.1S48.4,67,60,67c11.6,0,21.1-9.5,21.1-21.1S71.6,24.8,60,24.8z M60,62.3
			c-9.1,0-16.4-7.4-16.4-16.4S50.9,29.5,60,29.5c9.1,0,16.4,7.4,16.4,16.4S69.1,62.3,60,62.3z"/>
	</g>
</g>
</svg>
