<?xml version="1.0" encoding="utf-8"?>
<!-- Generator: Adobe Illustrator 22.0.1, SVG Export Plug-In . SVG Version: 6.00 Build 0)  -->
<svg version="1.1" id="Layer_1" xmlns="http://www.w3.org/2000/svg" xmlns:xlink="http://www.w3.org/1999/xlink" x="0px" y="0px"
	 viewBox="0 0 25 25" style="enable-background:new 0 0 25 25;" xml:space="preserve">
<g>
	<g id="XMLID_1_">
		<g>
			<path d="M9.6,1.2c4.6,0,8.2,3.8,8.2,8.4s-3.7,8.3-8.3,8.3s-8.3-3.7-8.3-8.3S5,1.2,9.6,1.2z"/>
			<path d="M24,24.7l-8-8c0.3-0.3,0.6-0.6,0.9-0.9l8,8c0.2,0.2,0.2,0.6,0,0.9c-0.2,0.2-0.4,0.2-0.5,0.2C24.2,24.9,24.1,24.8,24,24.7
				z"/>
			<path d="M16.9,15.8c-0.3,0.3-0.6,0.6-0.9,0.9l-0.2-0.2c-0.2-0.2-0.2-0.6,0-0.9c0.2-0.2,0.6-0.2,0.9,0L16.9,15.8z"/>
			<path d="M17.8,9.6c0-4.6-3.6-8.4-8.2-8.4S1.2,5,1.2,9.6s3.7,8.3,8.3,8.3S17.8,14.2,17.8,9.6z M16.7,15.6c-0.3-0.2-0.7-0.2-0.9,0
				c-0.2,0.3-0.2,0.7,0,0.9l0.2,0.2c-1.7,1.5-3.9,2.4-6.4,2.4C4.3,19.1,0,14.9,0,9.6S4.3,0,9.6,0s9.6,4.3,9.6,9.6
				c0,2.4-0.9,4.5-2.3,6.2L16.7,15.6z"/>
		</g>
		<g>
		</g>
	</g>
</g>
</svg>
