<?xml version="1.0" encoding="utf-8"?>
<!-- Generator: Adobe Illustrator 22.0.1, SVG Export Plug-In . SVG Version: 6.00 Build 0)  -->
<svg version="1.1" id="Layer_1" xmlns="http://www.w3.org/2000/svg" xmlns:xlink="http://www.w3.org/1999/xlink" x="0px" y="0px"
	 viewBox="0 0 25 25" style="enable-background:new 0 0 25 25;" xml:space="preserve">
<g>
	<path d="M9.6,19.1C4.3,19.1,0,14.9,0,9.6S4.3,0,9.6,0s9.6,4.3,9.6,9.6S14.9,19.1,9.6,19.1z M9.6,1.2C5,1.2,1.2,5,1.2,9.6
		s3.7,8.3,8.3,8.3s8.3-3.7,8.3-8.3S14.2,1.2,9.6,1.2z"/>
	<path d="M24.4,24.9c-0.2,0-0.3-0.1-0.4-0.2l-8.2-8.2c-0.2-0.2-0.2-0.6,0-0.9c0.2-0.2,0.6-0.2,0.9,0l8.2,8.2c0.2,0.2,0.2,0.6,0,0.9
		C24.7,24.9,24.5,24.9,24.4,24.9z"/>
</g>
</svg>
